<svg xmlns="http://www.w3.org/2000/svg">
    <symbol viewBox="0 0 20 20" fill="none" id="order-icon">
        <g>
            <path d="M13.3333 8.33333C13.3333 9.21739 12.9821 10.0652 12.357 10.6904C11.7319 11.3155 10.8841 11.6667 10 11.6667C9.11594 11.6667 8.2681 11.3155 7.64298 10.6904C7.01786 10.0652 6.66667 9.21739 6.66667 8.33333M2.58583 5.02833H17.4142M2.83333 4.55583C2.61696 4.84433 2.5 5.19522 2.5 5.55583V16.6667C2.5 17.1087 2.67559 17.5326 2.98816 17.8452C3.30072 18.1577 3.72464 18.3333 4.16667 18.3333H15.8333C16.2754 18.3333 16.6993 18.1577 17.0118 17.8452C17.3244 17.5326 17.5 17.1087 17.5 16.6667V5.55583C17.5 5.19522 17.383 4.84433 17.1667 4.55583L15.5 2.33333C15.3448 2.12634 15.1434 1.95834 14.912 1.84262C14.6806 1.72691 14.4254 1.66667 14.1667 1.66667H5.83333C5.57459 1.66667 5.3194 1.72691 5.08798 1.84262C4.85655 1.95834 4.65525 2.12634 4.5 2.33333L2.83333 4.55583Z" 
            stroke-width="2" stroke-linecap="round" stroke-linejoin="round"/>
        </g>
    </symbol>

    <symbol id="play-icon" viewBox="0 0 24 24" fill="none">
        <g>
            <path d="M9 9.003C8.99946 8.82553 9.04617 8.65112 9.13531 8.49767C9.22445 8.34422 9.35283 8.21725 9.50726 8.1298C9.66169 8.04236 9.8366 7.99759 10.0141 8.00008C10.1915 8.00258 10.3651 8.05225 10.517 8.144L15.514 11.141C15.6628 11.2297 15.786 11.3554 15.8715 11.506C15.957 11.6566 16.002 11.8268 16.002 12C16.002 12.1732 15.957 12.3434 15.8715 12.494C15.786 12.6446 15.6628 12.7703 15.514 12.859L10.517 15.856C10.365 15.9478 10.1913 15.9975 10.0138 15.9999C9.83627 16.0024 9.66128 15.9575 9.50682 15.87C9.35236 15.7824 9.224 15.6553 9.13493 15.5017C9.04586 15.3481 8.99929 15.1736 9 14.996V9.003Z" 
            stroke-width="2" stroke-linecap="round" stroke-linejoin="round"/>
            <path d="M12 22C17.5228 22 22 17.5228 22 12C22 6.47715 17.5228 2 12 2C6.47715 2 2 6.47715 2 12C2 17.5228 6.47715 22 12 22Z"
            stroke-width="2" stroke-linecap="round" stroke-linejoin="round"/>
        </g>
    </symbol>

    <symbol id="arrow-down" viewBox="0 0 24 24" fill="none">
        <g>
            <path d="M12 5V19M12 19L19 12M12 19L5 12"
            stroke-width="2" stroke-linecap="round" stroke-linejoin="round"/>
        </g>
    </symbol>

    <symbol id="ruler-dimension-line" viewBox="0 0 45 45" fill="none">
        <g>
            <path d="M18.75 28.125V22.5M26.25 28.125V22.5M33.75 28.125V22.5M3.75 15V7.5M41.25 11.25H3.75M41.25 15V7.5M11.25 28.125V22.5M7.5 22.5H37.5C39.5711 22.5 41.25 24.1789 41.25 26.25V33.75C41.25 35.8211 39.5711 37.5 37.5 37.5H7.5C5.42893 37.5 3.75 35.8211 3.75 33.75V26.25C3.75 24.1789 5.42893 22.5 7.5 22.5Z" 
            stroke-width="2" stroke-linecap="round" stroke-linejoin="round"/>
        </g>
    </symbol>

    <symbol viewBox="0 0 45 45" fill="none" id="table-rows-split">
        <g>
            <path d="M26.25 18.75H30M28.125 41.25V26.25M28.125 3.75V11.25M3.75 18.75H7.5M37.5 18.75H41.25M5.625 35.625H39.375M5.625 41.25V30C5.625 29.5075 5.722 29.0199 5.91045 28.5649C6.09891 28.11 6.37513 27.6966 6.72335 27.3484C7.07157 27.0001 7.48497 26.7239 7.93994 26.5355C8.39491 26.347 8.88254 26.25 9.375 26.25H35.625C36.1175 26.25 36.6051 26.347 37.0601 26.5355C37.515 26.7239 37.9284 27.0001 38.2766 27.3484C38.6249 27.6966 38.9011 28.11 39.0895 28.5649C39.278 29.0199 39.375 29.5075 39.375 30V41.25M5.625 3.75V7.5C5.625 8.49456 6.02009 9.44839 6.72335 10.1517C7.42661 10.8549 8.38044 11.25 9.375 11.25H35.625C36.6196 11.25 37.5734 10.8549 38.2766 10.1517C38.9799 9.44839 39.375 8.49456 39.375 7.5V3.75M15 18.75H18.75M16.875 41.25V26.25M16.875 3.75V11.25" 
            stroke-width="2" stroke-linecap="round" stroke-linejoin="round"/>
        </g>
    </symbol>

    <symbol viewBox="0 0 45 45" fill="none" id="battery-full">
        <g>
            <path d="M18.75 18.75V26.25M26.25 18.75V26.25M41.25 26.25V18.75M11.25 18.75V26.25M7.5 11.25H30C32.0711 11.25 33.75 12.9289 33.75 15V30C33.75 32.0711 32.0711 33.75 30 33.75H7.5C5.42893 33.75 3.75 32.0711 3.75 30V15C3.75 12.9289 5.42893 11.25 7.5 11.25Z" 
            stroke-width="2" stroke-linecap="round" stroke-linejoin="round"/>
        </g>
    </symbol>

    <symbol viewBox="0 0 45 45" fill="none" id="monitor-cog">
        <g>
            <path d="M22.5 31.8751V39.3751M26.8219 14.1188L28.5525 13.4026M28.5525 9.09757L26.8219 8.37944M31.5975 6.05257L30.8794 4.32007M31.5975 16.4476L30.8794 18.1782M35.9025 6.05257L36.6206 4.32007M36.6188 18.1801L35.9025 16.4476M38.9475 9.09757L40.68 8.37944M38.9475 13.4026L40.68 14.1207M41.25 24.3751V28.1251C41.25 29.1196 40.8549 30.0735 40.1516 30.7767C39.4484 31.48 38.4946 31.8751 37.5 31.8751H7.5C6.50544 31.8751 5.55161 31.48 4.84835 30.7767C4.14509 30.0735 3.75 29.1196 3.75 28.1251V9.37507C3.75 8.38051 4.14509 7.42668 4.84835 6.72342C5.55161 6.02016 6.50544 5.62507 7.5 5.62507H20.625M15 39.3751H30M39.375 11.2501C39.375 14.3567 36.8566 16.8751 33.75 16.8751C30.6434 16.8751 28.125 14.3567 28.125 11.2501C28.125 8.14347 30.6434 5.62507 33.75 5.62507C36.8566 5.62507 39.375 8.14347 39.375 11.2501Z" 
            stroke-width="2" stroke-linecap="round" stroke-linejoin="round"/>
        </g>
    </symbol>
</svg>